<svg width="130" height="49" viewBox="0 0 130 49" fill="none" xmlns="http://www.w3.org/2000/svg">
<path d="M42.6833 21.0265V25.3069H48.9808V42.3992H53.3856V25.3069H59.683V21.0265H42.6833ZM78.8179 22.2678C77.5374 21.3782 75.6243 20.9067 73.2626 20.9067C72.1977 20.9067 66.9544 21.0211 66.7334 21.0265L65.9013 21.0428V42.3992H70.3344V34.6529H73.1662C74.8497 34.691 76.5169 34.3175 78.0249 33.5651C80.0941 32.2693 81.3302 29.975 81.2814 27.5261C81.2814 25.136 80.4538 23.3665 78.8179 22.2668V22.2678ZM70.3235 25.3058C71.1902 25.3058 72.4978 25.2438 73.0362 25.2438C76.1161 25.2438 76.7455 26.1944 76.7455 27.6176C76.7553 28.4495 76.3772 29.24 75.7261 29.7518C74.8172 30.1928 73.8108 30.3888 72.8033 30.3213H70.3344L70.3235 25.3069V25.3058ZM90.6924 25.7566C88.5127 25.7392 86.424 26.6386 84.9334 28.2382C83.3864 29.8313 82.5381 31.9818 82.5782 34.2086C82.5479 36.4463 83.3961 38.6055 84.9399 40.2193C86.4316 41.8123 88.5149 42.7096 90.6924 42.6954C92.209 42.7139 93.6954 42.2784 94.9629 41.4432V42.1314H99.3395V26.1203L95.03 27.0252C93.743 26.1759 92.2318 25.7338 90.6924 25.7566ZM93.6488 31.0889C94.4374 31.9317 94.8664 33.0522 94.8437 34.2086C94.8686 35.3737 94.4407 36.504 93.6488 37.3555C92.9338 38.1417 91.9219 38.5892 90.8624 38.5892C89.8029 38.5892 88.7922 38.1428 88.0761 37.3566C87.2853 36.5018 86.8574 35.3704 86.8877 34.2032C86.8617 33.0468 87.2885 31.9274 88.0761 31.0835C88.7824 30.2832 89.7954 29.8258 90.8603 29.8258C91.9241 29.8258 92.937 30.2832 93.6434 31.0835L93.6488 31.0889V31.0889ZM110.354 32.4958L108.655 31.8403C107.127 31.2719 107.127 31.0998 107.127 30.8679C107.127 30.5031 107.127 29.8313 109.074 29.8313C110.473 29.8345 111.851 30.1721 113.095 30.8167L114.307 31.3851V26.7922L113.74 26.582C112.221 26.0049 110.613 25.7055 108.989 25.7C105.07 25.7 102.726 27.5664 102.726 30.6915C102.726 33.8166 104.99 34.9371 106.734 35.5741L108.559 36.2296C110.325 36.8611 110.496 37.0375 110.496 37.3675C110.496 37.8346 110.496 38.6142 108.281 38.6142C106.622 38.6099 104.997 38.1351 103.593 37.2477L102.312 36.5072V41.2265L102.772 41.466C104.476 42.3099 106.353 42.739 108.253 42.7183C112.415 42.7183 114.901 40.7594 114.901 37.4872C114.93 34.4874 112.856 33.429 110.354 32.4958V32.4958ZM125.094 32.4958L123.395 31.8403C121.866 31.2719 121.866 31.0998 121.866 30.8679C121.866 30.5031 121.866 29.8313 123.814 29.8313C125.213 29.8345 126.591 30.1721 127.834 30.8167L129.047 31.3851V26.7922L128.48 26.582C126.962 26.0049 125.353 25.7055 123.73 25.7C119.81 25.7 117.466 27.5664 117.466 30.6915C117.466 33.8166 119.731 34.9371 121.475 35.5741L123.299 36.2296C125.065 36.8611 125.236 37.0375 125.236 37.3675C125.236 37.8346 125.236 38.6142 123.021 38.6142C121.363 38.6099 119.738 38.1351 118.333 37.2477L117.053 36.5072V41.2265L117.511 41.466C119.215 42.3099 121.094 42.739 122.993 42.7183C127.155 42.7183 129.641 40.7594 129.641 37.4872C129.67 34.4874 127.625 33.429 125.094 32.4958V32.4958Z" fill="white"/>
<path d="M59.3938 42.4439C60.6664 42.4439 61.698 41.407 61.698 40.1278C61.698 38.8487 60.6664 37.8118 59.3938 37.8118C58.1212 37.8118 57.0895 38.8487 57.0895 40.1278C57.0895 41.407 58.1212 42.4439 59.3938 42.4439Z" fill="url(#paint0_linear_0_1)"/>
<path d="M27.6488 19.2668C27.2533 13.8202 23.4595 9.22728 18.2053 7.83568L18.4935 5.15375L20.7826 3.97993L20.8747 3.9331L22.4997 3.11099C22.8388 2.94004 23.0955 2.64168 23.2147 2.28017C23.3328 1.91975 23.3035 1.52666 23.1334 1.18693L22.9341 0.789481C22.9124 0.745925 22.8875 0.70237 22.8615 0.660992C22.4683 0.0425032 21.672 -0.177452 21.0198 0.15357L20.528 0.404014L20.4933 0.420348L15.8567 2.73424C15.5858 2.85837 15.4017 3.11535 15.3692 3.41261L14.9402 7.40666C8.24192 7.42844 2.78517 12.6551 2.30851 19.2668C0.969507 19.5282 0.00209041 20.7042 0.00100708 22.0762V23.4209C0.00317375 24.9497 1.20134 26.2063 2.72017 26.2727L4.59976 40.8856C4.97676 45.459 8.56801 48.9097 12.9501 48.9097H17.2531C21.6352 48.9097 25.2253 45.4611 25.598 40.9368L27.4841 26.2521C28.8968 26.0659 29.9541 24.8583 29.9563 23.4264V22.0805C29.9573 20.7085 28.9899 19.5271 27.6488 19.2668V19.2668ZM14.977 9.55395C20.4803 9.55395 25.0011 13.8061 25.5016 19.2124H23.414C22.9254 14.957 19.3418 11.649 14.9803 11.649C10.6198 11.649 7.02859 14.957 6.54109 19.2124H4.45459C4.95292 13.8061 9.47151 9.55395 14.977 9.55395ZM21.3784 19.2124H19.0688C18.6246 17.3014 16.9292 15.9501 14.9781 15.9501C13.0259 15.9501 11.3316 17.3014 10.8874 19.2124H8.57776C9.05767 16.0317 11.7779 13.6808 14.9781 13.6808C18.1783 13.6808 20.8985 16.0317 21.3784 19.2124V19.2124ZM5.93117 34.0866L4.92909 26.2858H12.8699L12.3575 31.1967C9.33826 31.0987 7.19759 32.7103 5.93334 34.0855L5.93117 34.0866ZM23.4194 40.7016C23.1378 44.124 20.4858 46.7047 17.252 46.7047H12.949C9.71417 46.7047 7.06217 44.124 6.77401 40.6504L6.25184 36.5726C6.72959 35.7755 8.67201 32.9651 12.1668 32.9988L11.5212 39.1772C11.4367 39.9851 12.0022 40.7136 12.7854 40.8007L13.2253 40.8497C13.274 40.8551 13.3228 40.8584 13.3715 40.8584C14.1125 40.8519 14.7278 40.2835 14.7961 39.5419L15.3984 33.773C15.5122 33.8242 15.6238 33.871 15.7386 33.9287C19.7686 35.9105 22.5658 35.3138 24.2222 34.4449L23.4205 40.7016H23.4194ZM24.5331 32.0308C23.9914 32.597 21.4792 34.7585 16.5229 32.3204C16.2066 32.1647 15.8989 32.033 15.5934 31.9121L16.1828 26.2847H25.2719L24.5331 32.0308V32.0308ZM27.7907 23.4188C27.7907 23.6017 27.7192 23.7781 27.5913 23.9066C27.4635 24.0373 27.2891 24.1102 27.1071 24.1102H2.85017C2.47101 24.1102 2.16551 23.8021 2.16551 23.4231V22.0773C2.16551 21.6972 2.47209 21.3902 2.85017 21.3891H27.1071C27.4863 21.3891 27.7918 21.6972 27.7928 22.0773L27.7907 23.4188V23.4188Z" fill="white"/>
<defs>
<linearGradient id="paint0_linear_0_1" x1="57.0952" y1="40.1278" x2="61.698" y2="40.1278" gradientUnits="userSpaceOnUse">
<stop stop-color="#59C4C9"/>
<stop offset="0.37" stop-color="#41B1BE"/>
<stop offset="1" stop-color="#0F8BA8"/>
</linearGradient>
</defs>
</svg>
