<svg width="130" height="47" viewBox="0 0 130 47" fill="none" xmlns="http://www.w3.org/2000/svg">
<path d="M41.8792 20.1378V24.4148H48.2187V41.4923H52.6535V24.4148H58.993V20.1378H41.8792ZM78.2557 21.3781C76.9679 20.4903 75.0406 20.0186 72.663 20.0186C71.5916 20.0186 66.3131 20.1317 66.0906 20.1378L65.253 20.1552V41.4923H69.7167V33.753H72.5671C74.2614 33.7904 75.9392 33.4179 77.4582 32.6668C79.5399 31.3717 80.7859 29.08 80.7361 26.6325C80.7361 24.2442 79.9038 22.4756 78.2557 21.3781V21.3781ZM69.7053 24.4148C70.5778 24.4148 71.8944 24.3521 72.4362 24.3521C75.537 24.3521 76.1695 25.3017 76.1695 26.7239C76.1791 27.5551 75.7996 28.3436 75.1435 28.8563C74.2291 29.2967 73.2153 29.4934 72.2015 29.4246H69.7167L69.7044 24.4148H69.7053ZM90.2104 24.8639C88.0161 24.8474 85.9143 25.7465 84.4128 27.3436C82.8554 28.9364 82.0012 31.0844 82.0414 33.3091C82.0108 35.5451 82.865 37.7027 84.4189 39.3147C85.9204 40.9066 88.0196 41.8031 90.2104 41.7883C91.7364 41.8074 93.2327 41.3722 94.5091 40.5375V41.2251H98.9152V25.2277L94.5772 26.132C93.2816 25.2834 91.7608 24.8413 90.2104 24.8639V24.8639ZM93.1865 30.1923C93.9804 31.0348 94.4123 32.1533 94.3896 33.3091C94.4158 34.4737 93.983 35.6025 93.1865 36.4538C92.4658 37.2388 91.4485 37.6862 90.3814 37.6862C89.3152 37.6862 88.2971 37.2388 87.5773 36.4538C86.7798 35.6008 86.3497 34.4693 86.3793 33.303C86.354 32.148 86.7842 31.0296 87.5773 30.1871C88.2875 29.3872 89.3074 28.9303 90.3788 28.9303C91.4502 28.9303 92.4701 29.3872 93.1803 30.1871L93.1865 30.1923V30.1923ZM110.004 31.5971L108.294 30.9434C106.754 30.3742 106.754 30.2036 106.754 29.9712C106.754 29.6066 106.754 28.9355 108.716 28.9355C110.124 28.939 111.511 29.2758 112.763 29.919L113.983 30.4882V25.8988L113.413 25.6881C111.884 25.112 110.264 24.8134 108.63 24.8073C104.685 24.8073 102.325 26.6725 102.325 29.7946C102.325 32.9166 104.606 34.0367 106.361 34.6739L108.197 35.3284C109.976 35.9594 110.147 36.1352 110.147 36.4651C110.147 36.9316 110.147 37.7106 107.917 37.7106C106.247 37.7062 104.611 37.2336 103.197 36.3458L101.909 35.606V40.3208L102.371 40.5602C104.086 41.4036 105.976 41.8318 107.889 41.8109C112.079 41.8109 114.581 39.8552 114.581 36.5852C114.61 33.5876 112.523 32.5293 110.004 31.598V31.5971ZM124.844 31.5971L123.134 30.9434C121.594 30.3742 121.594 30.2036 121.594 29.9712C121.594 29.6066 121.594 28.9355 123.555 28.9355C124.963 28.939 126.35 29.2758 127.602 29.919L128.822 30.4882V25.8988L128.252 25.6881C126.723 25.112 125.103 24.8134 123.469 24.8073C119.524 24.8073 117.164 26.6725 117.164 29.7946C117.164 32.9166 119.445 34.0367 121.2 34.6739L123.036 35.3284C124.815 35.9594 124.986 36.1352 124.986 36.4651C124.986 36.9316 124.986 37.7106 122.757 37.7106C121.086 37.7062 119.45 37.2336 118.037 36.3458L116.748 35.606V40.3208L117.21 40.5602C118.925 41.4036 120.815 41.8318 122.728 41.8109C126.918 41.8109 129.421 39.8552 129.421 36.5852C129.449 33.5876 127.391 32.5293 124.843 31.598L124.844 31.5971Z" fill="#122F53"/>
<path d="M58.7024 41.5376C59.9837 41.5376 61.0224 40.5014 61.0224 39.2232C61.0224 37.9451 59.9837 36.9089 58.7024 36.9089C57.4212 36.9089 56.3825 37.9451 56.3825 39.2232C56.3825 40.5014 57.4212 41.5376 58.7024 41.5376Z" fill="url(#paint0_linear_0_1)"/>
<path d="M26.5087 18.3335C26.13 13.1505 22.4926 8.78034 17.4549 7.4565L17.7306 4.90371L19.9266 3.78702L20.0139 3.74263L21.573 2.96017C21.8967 2.79741 22.1428 2.51367 22.257 2.16987C22.3705 1.82695 22.3434 1.45269 22.1803 1.12891L21.9883 0.751171C21.9665 0.709394 21.943 0.668486 21.9177 0.629319C21.5407 0.0400787 20.7782 -0.16881 20.1526 0.146264L19.6815 0.383875L19.6474 0.400412L15.2013 2.60245C14.943 2.71995 14.765 2.96539 14.7345 3.24739L14.3227 7.0483C7.90121 7.06832 2.6698 12.0416 2.21262 18.3335C0.92745 18.5816 0 19.7026 0 21.0064V22.2867C0.00174497 23.742 1.15168 24.937 2.60872 25.0006L4.40866 38.9047C4.77074 43.2566 8.21443 46.5405 12.4146 46.5405H16.5414C20.7424 46.5405 24.1844 43.2592 24.5421 38.9543L26.349 24.9805C27.7031 24.803 28.7169 23.6541 28.7195 22.2911V21.0117C28.7213 19.7052 27.793 18.5816 26.5078 18.3335H26.5087ZM14.3602 9.09019C19.637 9.09019 23.9706 13.1374 24.4496 18.2813H22.449C21.9796 14.2323 18.5446 11.0842 14.3628 11.0842C10.1819 11.0842 6.73819 14.2323 6.27141 18.2822H4.27081C4.74893 13.1383 9.08081 9.09106 14.3602 9.09106V9.09019ZM20.4972 18.2813H18.282C17.8562 16.4631 16.2317 15.1776 14.3602 15.1776C12.4887 15.1776 10.8642 16.4631 10.4384 18.2813H8.22403C8.68383 15.255 11.2917 13.019 14.3602 13.019C17.4287 13.019 20.0366 15.2559 20.4972 18.2813ZM5.68685 32.4361L4.7245 25.0136H12.3395L11.8466 29.6875C8.95255 29.5935 6.8996 31.128 5.68685 32.4361V32.4361ZM22.4542 38.7307C22.1838 41.9876 19.6405 44.4429 16.5405 44.4429H12.4154C9.31463 44.4429 6.77222 41.9876 6.49651 38.681L5.99483 34.8018C6.45376 34.0428 8.31564 31.3682 11.6668 31.4004L11.0474 37.2797C10.9662 38.0483 11.5081 38.742 12.2593 38.8247L12.6807 38.8717C12.7278 38.8769 12.774 38.8804 12.8211 38.8804C13.5313 38.8743 14.1211 38.332 14.1866 37.627L14.7642 32.1376C14.8732 32.1863 14.9805 32.2307 15.0913 32.2856C18.9538 34.1717 21.6367 33.6042 23.2246 32.7773L22.4551 38.7307H22.4542ZM23.5221 30.4795C23.0021 31.0192 20.5941 33.075 15.8417 30.7554C15.5381 30.6075 15.2432 30.4822 14.9517 30.3664L15.5154 25.0119H24.2289L23.5221 30.4795V30.4795ZM26.6448 22.285C26.6448 22.4591 26.5767 22.6262 26.4537 22.7489C26.3315 22.8725 26.164 22.9421 25.9904 22.943H2.73262C2.37054 22.943 2.07651 22.6497 2.07564 22.2885V21.0082C2.07651 20.647 2.37054 20.3537 2.73262 20.3537H25.9904C26.3525 20.3537 26.6456 20.647 26.6465 21.0082L26.6448 22.285Z" fill="#122F53"/>
<defs>
<linearGradient id="paint0_linear_0_1" x1="56.3882" y1="39.2232" x2="61.0224" y2="39.2232" gradientUnits="userSpaceOnUse">
<stop stop-color="#59C4C9"/>
<stop offset="0.37" stop-color="#41B1BE"/>
<stop offset="1" stop-color="#0F8BA8"/>
</linearGradient>
</defs>
</svg>
